<mxfile host="65bd71144e">
    <diagram id="graQZjH0Ll4S6qYKJD3d" name="第 1 页">
        <mxGraphModel dx="883" dy="842" grid="1" gridSize="10" guides="1" tooltips="1" connect="1" arrows="1" fold="1" page="1" pageScale="1" pageWidth="827" pageHeight="1169" math="0" shadow="0">
            <root>
                <mxCell id="0"/>
                <mxCell id="1" parent="0"/>
                <mxCell id="18" value="" style="group" parent="1" vertex="1" connectable="0">
                    <mxGeometry x="120" y="70" width="640" height="360" as="geometry"/>
                </mxCell>
                <mxCell id="16" value="&lt;b&gt;服务端mvc&lt;/b&gt;" style="text;html=1;align=center;verticalAlign=middle;resizable=1;points=[];autosize=1;strokeColor=none;fillColor=none;container=0;movable=1;rotatable=1;deletable=1;editable=1;connectable=1;" parent="18" vertex="1">
                    <mxGeometry x="10" y="15" width="80" height="30" as="geometry"/>
                </mxCell>
                <mxCell id="2" value="服务器" style="whiteSpace=wrap;html=1;aspect=fixed;container=0;movable=1;resizable=1;rotatable=1;deletable=1;editable=1;connectable=1;" parent="18" vertex="1">
                    <mxGeometry y="140" width="80" height="80" as="geometry"/>
                </mxCell>
                <mxCell id="4" value="Controller&lt;br&gt;控制器" style="ellipse;whiteSpace=wrap;html=1;container=0;movable=1;resizable=1;rotatable=1;deletable=1;editable=1;connectable=1;" parent="18" vertex="1">
                    <mxGeometry x="254" width="120" height="80" as="geometry"/>
                </mxCell>
                <mxCell id="3" style="edgeStyle=none;html=1;exitX=1;exitY=0;exitDx=0;exitDy=0;entryX=0;entryY=0.5;entryDx=0;entryDy=0;movable=1;resizable=1;rotatable=1;deletable=1;editable=1;connectable=1;" parent="18" source="2" target="4" edge="1">
                    <mxGeometry relative="1" as="geometry">
                        <mxPoint x="270" y="60" as="targetPoint"/>
                    </mxGeometry>
                </mxCell>
                <mxCell id="11" value="收到一个请求，通过url路径，&lt;br&gt;分发到不同的控制器中进行处理" style="edgeLabel;html=1;align=center;verticalAlign=middle;resizable=1;points=[];container=0;movable=1;rotatable=1;deletable=1;editable=1;connectable=1;" parent="3" vertex="1" connectable="0">
                    <mxGeometry x="-0.0847" y="4" relative="1" as="geometry">
                        <mxPoint x="-29" y="-8" as="offset"/>
                    </mxGeometry>
                </mxCell>
                <mxCell id="6" value="Model&lt;br&gt;数据模型" style="ellipse;whiteSpace=wrap;html=1;container=0;movable=1;resizable=1;rotatable=1;deletable=1;editable=1;connectable=1;" parent="18" vertex="1">
                    <mxGeometry x="520" y="130" width="120" height="80" as="geometry"/>
                </mxCell>
                <mxCell id="7" value="" style="edgeStyle=none;html=1;movable=1;resizable=1;rotatable=1;deletable=1;editable=1;connectable=1;" parent="18" source="4" target="6" edge="1">
                    <mxGeometry relative="1" as="geometry"/>
                </mxCell>
                <mxCell id="12" value="调用视图拼接需要返回的数据结构" style="edgeLabel;html=1;align=center;verticalAlign=middle;resizable=1;points=[];container=0;movable=1;rotatable=1;deletable=1;editable=1;connectable=1;" parent="7" vertex="1" connectable="0">
                    <mxGeometry x="-0.2298" relative="1" as="geometry">
                        <mxPoint as="offset"/>
                    </mxGeometry>
                </mxCell>
                <mxCell id="10" style="edgeStyle=none;html=1;entryX=1;entryY=1;entryDx=0;entryDy=0;movable=1;resizable=1;rotatable=1;deletable=1;editable=1;connectable=1;" parent="18" source="8" target="2" edge="1">
                    <mxGeometry relative="1" as="geometry"/>
                </mxCell>
                <mxCell id="14" value="将数据和页面结构进行组装" style="edgeLabel;html=1;align=center;verticalAlign=middle;resizable=1;points=[];container=0;movable=1;rotatable=1;deletable=1;editable=1;connectable=1;" parent="10" vertex="1" connectable="0">
                    <mxGeometry x="-0.0125" y="-1" relative="1" as="geometry">
                        <mxPoint as="offset"/>
                    </mxGeometry>
                </mxCell>
                <mxCell id="8" value="View&lt;br&gt;视图" style="ellipse;whiteSpace=wrap;html=1;container=0;movable=1;resizable=1;rotatable=1;deletable=1;editable=1;connectable=1;" parent="18" vertex="1">
                    <mxGeometry x="270" y="280" width="120" height="80" as="geometry"/>
                </mxCell>
                <mxCell id="9" value="" style="edgeStyle=none;html=1;movable=1;resizable=1;rotatable=1;deletable=1;editable=1;connectable=1;" parent="18" source="6" target="8" edge="1">
                    <mxGeometry relative="1" as="geometry"/>
                </mxCell>
                <mxCell id="13" value="将数据交给视图" style="edgeLabel;html=1;align=center;verticalAlign=middle;resizable=1;points=[];container=0;movable=1;rotatable=1;deletable=1;editable=1;connectable=1;" parent="9" vertex="1" connectable="0">
                    <mxGeometry x="-0.0348" y="4" relative="1" as="geometry">
                        <mxPoint x="1" as="offset"/>
                    </mxGeometry>
                </mxCell>
                <mxCell id="34" value="" style="group" vertex="1" connectable="0" parent="1">
                    <mxGeometry x="110" y="505" width="650" height="445" as="geometry"/>
                </mxCell>
                <mxCell id="19" value="action" style="rounded=0;whiteSpace=wrap;html=1;labelBackgroundColor=none;container=0;" parent="34" vertex="1">
                    <mxGeometry width="240" height="145" as="geometry"/>
                </mxCell>
                <mxCell id="21" value="stroe" style="rounded=0;whiteSpace=wrap;html=1;labelBackgroundColor=none;container=0;" parent="34" vertex="1">
                    <mxGeometry x="330" y="5" width="270" height="140" as="geometry"/>
                </mxCell>
                <mxCell id="22" value="" style="edgeStyle=none;html=1;" parent="34" source="19" target="21" edge="1">
                    <mxGeometry relative="1" as="geometry"/>
                </mxCell>
                <mxCell id="23" value="1.dispatch分发" style="edgeLabel;html=1;align=center;verticalAlign=middle;resizable=0;points=[];container=0;" parent="22" vertex="1" connectable="0">
                    <mxGeometry x="-0.24" y="3" relative="1" as="geometry">
                        <mxPoint x="12" y="1" as="offset"/>
                    </mxGeometry>
                </mxCell>
                <mxCell id="27" style="edgeStyle=none;html=1;exitX=0.75;exitY=0;exitDx=0;exitDy=0;entryX=0.75;entryY=1;entryDx=0;entryDy=0;" parent="34" source="24" target="21" edge="1">
                    <mxGeometry relative="1" as="geometry"/>
                </mxCell>
                <mxCell id="30" value="3.得到最新的数据" style="edgeLabel;html=1;align=center;verticalAlign=middle;resizable=0;points=[];container=0;" parent="27" vertex="1" connectable="0">
                    <mxGeometry x="0.0875" y="-2" relative="1" as="geometry">
                        <mxPoint x="18" y="1" as="offset"/>
                    </mxGeometry>
                </mxCell>
                <mxCell id="24" value="reducer" style="rounded=0;whiteSpace=wrap;html=1;labelBackgroundColor=none;container=0;" parent="34" vertex="1">
                    <mxGeometry x="330" y="335" width="270" height="110" as="geometry"/>
                </mxCell>
                <mxCell id="26" style="edgeStyle=none;html=1;exitX=0.25;exitY=1;exitDx=0;exitDy=0;entryX=0.25;entryY=0;entryDx=0;entryDy=0;" parent="34" source="21" target="24" edge="1">
                    <mxGeometry relative="1" as="geometry"/>
                </mxCell>
                <mxCell id="28" value="2.传递action" style="edgeLabel;html=1;align=center;verticalAlign=middle;resizable=0;points=[];container=0;" parent="26" vertex="1" connectable="0">
                    <mxGeometry x="-0.2375" y="-2" relative="1" as="geometry">
                        <mxPoint x="-8" as="offset"/>
                    </mxGeometry>
                </mxCell>
                <mxCell id="31" value="4. 保存新的数据" style="text;html=1;align=center;verticalAlign=middle;resizable=0;points=[];autosize=1;strokeColor=none;fillColor=none;container=0;" parent="34" vertex="1">
                    <mxGeometry x="540" y="45" width="110" height="30" as="geometry"/>
                </mxCell>
            </root>
        </mxGraphModel>
    </diagram>
</mxfile>